<?xml version="1.0" encoding="utf-8" ?>
<svg xmlns="http://www.w3.org/2000/svg" xmlns:xlink="http://www.w3.org/1999/xlink" width="512" height="512">
	<path fill="white" transform="scale(0.5 0.5)" d="M-0 -0L1024 0L1024 1024L-0 1024L0 -0Z"/>
	<path fill="#386742" transform="scale(0.5 0.5)" d="M3.52948 3.49921L1019.59 3.77236C1021.27 10.573 1020.42 18.2983 1020.45 25.306L1020.5 60.1619L1020.51 200.764L1020.52 798.112L1020.51 956.477L1020.52 1000.17C1020.52 1006.38 1021.3 1013.71 1020.28 1019.75L1018.12 1020L3.90163 1019.5L3.52948 3.49921Z"/>
	<path fill="white" transform="scale(0.5 0.5)" d="M497.048 205.282C506.76 204.462 516.8 205.104 526.532 205.538C592.14 208.465 656.344 232.43 706.535 274.938C768.208 327.17 807.051 405.486 813.518 485.862C818.012 541.697 810.577 599.583 784.971 650C772.354 674.844 756.25 696.851 738.254 718.002C729.948 727.764 720.629 736.578 711 745.021C704.248 750.942 697.38 756.847 690.121 762.148C682.511 767.704 674.303 772.611 666.155 777.311C638.941 793.007 609.651 804.651 578.9 811.305C562.128 814.934 545.187 816.506 528.123 817.877L523.126 818.1C445.795 821.19 366.461 793.642 309.602 740.737C294.122 726.334 279.769 710.204 267.649 692.871C250.256 667.997 237.198 639.497 227.755 610.75C219.07 584.308 213.169 556.929 212.126 529.037C211.316 507.383 211.665 486.01 214.511 464.5C217.48 442.056 223.578 419.616 231.453 398.427C241.719 370.804 254.692 345.086 272.462 321.488C278.582 313.362 285.639 305.667 292.597 298.25C345.279 242.093 420.089 208.014 497.048 205.282Z"/>
	<path fill="#386742" transform="scale(0.5 0.5)" d="M504.272 235.72L504.399 235.699C519.947 234.929 536.123 236.4 551.48 238.75C600.589 246.266 647.899 264.484 685.476 297.818C698.772 309.613 711.922 323.082 722.81 337.179C756.999 381.441 779.417 439.267 782.603 495.213C785.021 537.692 778.471 582.674 761.942 622C751.102 647.791 734.935 673.003 716.252 693.802C679.852 734.324 629.518 764.929 576.317 777.024C559.308 780.891 541.256 782.668 523.876 783.647L520.969 783.846C477.122 785.784 435.249 776.539 395.636 757.829C384.81 752.716 374.063 747.195 364.032 740.634C351.533 732.46 339.555 722.615 328.562 712.521C303.527 689.532 283.989 661.571 269.625 630.862C266.05 623.217 262.493 615.543 259.714 607.564C250.248 580.387 245.517 550.855 244.288 522.133C242.263 474.791 251.693 429.654 271.582 386.687C282.817 362.416 297.007 339.701 315.163 319.985C344.289 288.358 380.704 265.515 421.1 251.064C430.151 247.826 439.551 244.635 448.913 242.477C467.3 238.238 485.463 236.477 504.272 235.72Z"/>
	<path fill="white" transform="scale(0.5 0.5)" d="M482.766 309.186C492.658 308.344 501.435 309.993 510.741 313.239L525.041 318.79C531.689 317.056 538.615 317.617 545.412 317.802C556.889 318.115 568.424 318.827 579.824 320.23C619.348 325.094 658.373 339.638 683.552 372.012C696.727 388.951 706.758 408.015 709.673 429.5C710.424 435.036 711.034 441.175 710.258 446.747L710.141 447.5C709.892 449.18 709.506 450.649 708.917 452.238C708.732 452.738 707.929 454.371 707.935 454.793C707.939 455.148 711.018 459.043 711.351 459.503C716.528 466.657 721.56 473.78 727.233 480.568C729.621 483.425 732.365 485.856 734.879 488.58L742.957 497.522C747.346 502.068 751.499 505.978 754.958 511.313C755.846 512.682 757.052 514.304 757.15 516C757.432 520.883 739.581 522.856 735.966 526.25C735.771 531.082 739.021 537.559 741.187 541.813C738.376 546.907 733.385 550.246 729.464 554.526L737.489 564.103C735.721 568.523 731.703 571.924 727.756 574.358L726.977 574.834C726.787 576.767 727.276 578.87 727.514 580.811C728.044 585.141 728.712 589.567 728.558 593.937C728.304 601.171 723.638 609.969 718.431 614.834C716.285 616.839 712.429 620.601 709.538 621.318C706.828 621.991 703.083 621.681 700.25 621.641L677.25 620.575L644.851 619.04C639.776 626.889 636.907 636.919 633.488 645.598L606.614 716.056C603.555 723.895 601.326 733.178 596.273 739.935L544.125 740.176L537.783 739.937L550.732 682.632C551.858 676.003 550.919 669.081 550.028 662.484C548.64 652.205 546.616 639.084 540.182 630.54C536.257 625.327 529.883 622.829 524.358 619.807C523.66 619.426 521.119 617.708 520.496 617.675C520.349 617.667 518.18 619.236 517.766 619.497C515.711 620.793 513.501 621.879 511.216 622.703C503.853 625.355 495.618 626.839 487.787 626.46C477.49 625.963 466.314 623.366 457.383 618.086C452.952 615.465 449.513 611.925 445.637 608.606C445.199 608.231 443.008 606.083 442.586 606.022C440.45 605.709 436.309 606.928 434.046 607.204C426.957 608.068 420.102 608.475 412.991 607.393C396.576 604.896 385.547 595.885 376.047 582.834C364.165 586.435 348.437 586.211 336.579 583.027C331.75 581.731 327.016 579.627 322.429 577.646C308.422 571.596 297.101 561.744 291.48 547.279C285.498 531.886 291.156 521.006 297.239 506.967C294.694 503.304 292.167 499.823 290.466 495.675C285.199 482.834 285.58 469.604 290.915 456.958C297.363 441.674 310.452 433.012 325.212 427.069L323.57 418.43C321.832 403.481 329.452 387.938 341.151 378.772C345.086 375.689 349.813 373.353 354.354 371.315L364 367.482C365.05 367.07 366.888 366.615 367.651 365.854C368.771 364.736 369.575 360.953 370.264 359.356C371.31 356.931 372.689 354.713 374.32 352.64C386.038 337.753 407.244 329.439 425.937 332.765L436.314 335.016C436.77 335.121 438.779 335.741 439.115 335.665C439.557 335.565 441.278 333.219 441.573 332.848C443.8 330.04 445.987 326.97 448.688 324.605C458.357 316.141 470.037 310.671 482.766 309.186Z"/>
	<path fill="#386742" transform="scale(0.5 0.5)" d="M407.951 344.584C413.306 343.884 419.928 345.352 424.265 348.566C430.884 353.471 431.425 358.578 432.553 366.204L430.5 366.61C428.586 366.902 426.94 367.431 425.13 368.116C421.409 369.526 418.805 371.753 415.56 373.914C413.904 375.017 411.598 375.929 410.778 377.75L409.75 377.709C402.048 371.107 392.599 367.594 383.277 363.896L385.783 358.986C390.926 350.514 398.736 346.942 407.951 344.584Z"/>
	<path fill="#386742" transform="scale(0.5 0.5)" d="M371.092 383.195C375.362 383.047 381.425 382.846 385.5 384.077C389.898 385.406 393.459 388.086 396.928 391.001C397.32 392.237 395.747 395.492 395.371 396.92C393.674 403.367 392.762 410.156 389.689 416.133C381.799 412.44 373.507 412.241 364.951 411.622C355.95 411.368 346.713 412.871 338.442 416.458C337.792 408.27 338.392 402.379 344.041 395.859C350.884 387.96 360.846 383.932 371.092 383.195Z"/>
	<path fill="#386742" transform="scale(0.5 0.5)" d="M519.264 405.106C520.823 404.891 522.329 404.469 523.799 405.197C524.683 408.385 524.513 411.877 524.592 415.16L524.721 432.198L524.88 478.825C518.055 474.411 513.234 470.781 508.25 464.293C503.035 456.799 497.933 449.543 493.3 441.67C491.131 437.985 488.609 433.895 487.321 429.809C486.752 428.004 486.511 425.511 487.564 423.845C495.32 411.578 505.68 407.81 519.264 405.106Z"/>
	<path fill="#386742" transform="scale(0.5 0.5)" d="M478.975 564.924C487.169 567.901 495.374 571.29 503.75 573.696L524.495 578.727L523.763 595.454C521.906 597.142 519.522 598.382 517.383 599.685C512.873 602.433 508.531 604.877 503.443 606.41C501.4 607.082 499.188 607.634 497.052 607.903C484.089 609.531 469.942 605.714 459.563 597.81C462.27 594.616 465.389 591.76 467.954 588.446C473.514 581.262 476.114 573.428 478.975 564.924Z"/>
	<path fill="#386742" transform="scale(0.5 0.5)" d="M310.909 514.89C316.677 519.564 323.283 523.588 329.963 526.811C340.226 531.764 351.764 535.122 362.887 531.279C364.071 533.975 364.535 537.381 365.186 540.265C366.763 547.26 368.109 554.374 368.87 561.505L364.613 562.673C352.293 565.001 338.554 566.641 326.768 561.181C317.792 557.024 311.304 548.396 308.113 539.25C306.573 534.837 306.296 527.279 307.456 522.757C308.142 520.079 309.7 517.372 310.909 514.89Z"/>
	<path fill="#386742" transform="scale(0.5 0.5)" d="M330.258 450.173C336.016 449.828 340.763 450.785 345.748 453.855C352.737 458.158 357.641 464.716 359.348 472.795C360.536 478.416 358.39 484.692 355.293 489.414C351.285 495.527 344.054 499.045 337.115 500.414C329.812 501.352 323.802 499.757 317.957 495.287C312.625 491.209 308.6 485.446 307.768 478.649C306.887 471.449 309.065 464.738 313.509 459.113C317.78 453.709 323.538 450.941 330.258 450.173Z"/>
	<path fill="#386742" transform="scale(0.5 0.5)" d="M482.751 326.643L489.139 326.438C497.058 326.569 506.537 330.505 511.96 336.258C517.156 341.769 522.177 349.661 523.851 357.133C524.735 361.073 524.56 365.24 524.551 369.254L524.324 385.816C513.225 387.853 503.388 389.944 493.632 395.933C492.345 394.768 491.553 392.98 490.71 391.48C488.574 387.678 486.749 383.878 485.238 379.789C488.778 378.877 492.012 377.67 495.258 375.997C496.547 375.013 497.819 373.99 498.789 372.674C501.469 369.035 502.813 365.223 502.193 360.725C501.632 356.663 501.111 353.542 498.25 350.363C495.232 347.009 491.765 345.225 487.232 345.016C482.978 344.82 479.369 345.7 476.255 348.75C471.23 353.672 470.997 359.149 470.731 365.726L450.894 362.384C451.147 355.024 453.24 347.792 457.606 341.791C463.908 333.129 472.278 328.296 482.751 326.643Z"/>
	<path fill="#386742" transform="scale(0.5 0.5)" d="M443.617 384.101C447.444 384.169 450.835 383.738 454.614 384.693C461.653 386.47 466.907 391.192 470.454 397.379C472.791 401.457 473.115 405.155 471.813 409.615L471.544 410.5C470.785 413.112 469.827 415.563 468.334 417.85C466.825 420.16 464.79 422.24 463.706 424.784C465.601 430.933 468.421 435.398 471.663 440.86L479.973 455.251C482.201 458.87 484.738 462.213 486.856 465.918L474.031 460.985C462.245 457.754 449.044 453.145 438.474 446.984C428.552 441.202 420.638 433.133 417.892 421.703C415.98 413.746 417.504 404.636 421.938 397.767C426.773 390.278 435.072 385.907 443.617 384.101Z"/>
	<path fill="#386742" transform="scale(0.5 0.5)" d="M422.412 521.628C429.43 520.643 436.748 522.2 442.721 525.985C449.476 530.267 453.34 535.342 455.163 543.204C454.637 545.407 454.157 547.801 452.992 549.765C449.672 555.359 442.785 559.799 437.581 563.624L456.76 565.484L456.926 565.806L455.026 572.157C452.41 578.574 444.553 583.045 438.626 585.703C432.562 588.095 424.027 589.074 417.705 587.268L416.75 586.982C412.317 585.722 408.216 583.617 404.328 581.142C397.775 576.972 392.265 568.464 390.627 560.885C388.982 553.268 390.38 545.235 394.703 538.75C401.035 529.249 411.485 523.854 422.412 521.628Z"/>
	<path fill="#386742" transform="scale(0.5 0.5)" d="M369.352 431.21L370.25 431.102C375.061 430.717 381.177 430.573 385.716 432.271C391.392 434.394 396.364 438.644 400.815 442.645L421.232 462.383C429.633 469.758 440.169 475.772 450.925 478.873C458.049 480.927 465.414 482.26 472.744 483.32C484.827 485.067 501.207 486.086 510.59 494.85C514.451 498.457 516.473 503.251 518.314 508.086C521.007 515.16 523.22 523.564 524.184 531.067C525.344 540.095 525.174 549.613 525.513 558.714C509.379 556.084 495.374 548.632 482.721 538.393C473.406 529.708 468.58 517.503 459.067 508.968C449.619 500.492 437.92 496.438 425.25 499.033C418.246 500.467 411.618 503.95 405.185 506.952C395.077 511.668 383 516.137 371.771 516.446C368.621 516.532 364.459 516.007 362.14 513.75C363.084 511.629 365.404 509.82 367.049 508.15C370.44 504.706 374.06 501.113 376.53 496.923C380.5 490.189 381.48 480.265 382.342 472.656C382.633 470.083 383.363 466.758 382.572 464.25C381.465 460.739 375.954 458.419 373.019 456.586C363.533 450.662 353.807 445.249 343.771 440.305C351.733 435.088 359.86 431.947 369.352 431.21Z"/>
</svg>
